<svg width="14" height="20" viewBox="0 0 14 20" fill="none" xmlns="http://www.w3.org/2000/svg">
	<path
		d="M3.66669 4.99996V3.33329C3.66669 2.89127 3.84228 2.46734 4.15484 2.15478C4.4674 1.84222 4.89133 1.66663 5.33335 1.66663H8.66669C9.10872 1.66663 9.53264 1.84222 9.8452 2.15478C10.1578 2.46734 10.3334 2.89127 10.3334 3.33329V4.99996M12.8334 4.99996V16.6666C12.8334 17.1087 12.6578 17.5326 12.3452 17.8451C12.0326 18.1577 11.6087 18.3333 11.1667 18.3333H2.83335C2.39133 18.3333 1.9674 18.1577 1.65484 17.8451C1.34228 17.5326 1.16669 17.1087 1.16669 16.6666V4.99996H12.8334Z"
		stroke="#3D3D4D" stroke-width="1.5" stroke-linecap="round" stroke-linejoin="round" />
</svg>
